<?xml version="1.0" encoding="UTF-8"?>
<svg width="256px" height="256px" viewBox="0 0 256 256" version="1.1" xmlns="http://www.w3.org/2000/svg" xmlns:xlink="http://www.w3.org/1999/xlink">
    <!-- Generator: Sketch 46 (44423) - http://www.bohemiancoding.com/sketch -->
    <title>icon-linkedin</title>
    <desc>Created with Sketch.</desc>
    <defs></defs>
    <g id="Icons-256" stroke="none" stroke-width="1" fill="none" fill-rule="evenodd">
        <g id="icon-linkedin">
            <g transform="translate(32.000000, 32.000000)">
                <g>
                    <rect id="bg" fill="#D8D8D8" opacity="0" x="0" y="0" width="192" height="192"></rect>
                    <path d="M146.711409,146.707409 L125.354815,146.707409 L125.354815,113.28648 C125.354815,105.318259 125.218812,95.0659741 114.258507,95.0659741 C103.142198,95.0659741 101.446151,103.750215 101.446151,112.718464 L101.446151,146.707409 L80.1135587,146.707409 L80.1135587,77.9854996 L100.586127,77.9854996 L100.586127,87.3817606 L100.882136,87.3817606 C103.730215,81.9776105 110.698408,76.2814523 121.086697,76.2814523 C142.715298,76.2814523 146.711409,90.5098475 146.711409,109.018362 L146.711409,146.707409 Z M56.0328898,68.5972388 C49.1726992,68.5972388 43.6405456,63.0490847 43.6405456,56.2088947 C43.6405456,49.3727048 49.1726992,43.8245507 56.0328898,43.8245507 C62.8650796,43.8245507 68.4092336,49.3727048 68.4092336,56.2088947 C68.4092336,63.0490847 62.8650796,68.5972388 56.0328898,68.5972388 Z M45.3365927,146.707409 L66.7171866,146.707409 L66.7171866,77.9854996 L45.3365927,77.9854996 L45.3365927,146.707409 Z M157.347704,24 L34.620295,24 C28.7601322,24 24,28.6481291 24,34.3842885 L24,157.611711 C24,163.347871 28.7601322,168.004 34.620295,168.004 L157.347704,168.004 C163.219867,168.004 168,163.347871 168,157.611711 L168,34.3842885 C168,28.6481291 163.219867,24 157.347704,24 L157.347704,24 Z" fill="#99AABB"></path>
                </g>
            </g>
        </g>
    </g>
</svg>